<svg width="40" height="50" viewBox="0 0 40 50" fill="none" xmlns="http://www.w3.org/2000/svg">
<path d="M37.7865 1.28458C37.0264 0.934394 36.1308 1.07066 35.5091 1.63088L32.2288 4.53534C32.1396 4.61477 32.0049 4.61429 31.9162 4.5344L27.4529 0.542483C26.6457 -0.180828 25.4236 -0.180828 24.6164 0.542483L20.1572 4.53073C20.0675 4.61087 19.9319 4.61087 19.8422 4.53073L15.3825 0.542483C14.5753 -0.180709 13.3532 -0.180709 12.546 0.542483L8.08216 4.5344C7.99281 4.61429 7.85784 4.61465 7.76802 4.53523L4.48476 1.63088C3.61371 0.856272 2.27961 0.934394 1.505 1.80544C1.15765 2.19605 0.967602 2.70166 0.97162 3.22429V46.7758C0.96382 47.9433 1.90389 48.896 3.07135 48.9038C3.59433 48.9074 4.09994 48.7168 4.49067 48.3692L7.77097 45.4648C7.8602 45.3854 7.99482 45.3858 8.08358 45.4657L12.5468 49.4576C13.3541 50.1809 14.5761 50.1809 15.3833 49.4576L19.843 45.4694C19.9327 45.3893 20.0683 45.3893 20.158 45.4694L24.6177 49.4575C25.4251 50.1805 26.647 50.1805 27.4542 49.4575L31.9183 45.4656C32.0077 45.3857 32.1426 45.3854 32.2325 45.4648L35.5157 48.3691C36.3871 49.1434 37.7211 49.0647 38.4953 48.1933C38.8421 47.803 39.0319 47.298 39.0281 46.7758V3.22429C39.0392 2.38763 38.5509 1.62473 37.7865 1.28458ZM8.79649 16.9633H20.5664C21.0885 16.9633 21.5119 17.3866 21.5119 17.9088C21.5119 18.4309 21.0885 18.8543 20.5664 18.8543H8.79649C8.27433 18.8543 7.85099 18.4309 7.85099 17.9088C7.85099 17.3866 8.27433 16.9633 8.79649 16.9633ZM31.2033 33.0368H8.79649C8.27433 33.0368 7.85099 32.6135 7.85099 32.0913C7.85099 31.5692 8.27433 31.1458 8.79649 31.1458H31.2033C31.7254 31.1458 32.1488 31.5692 32.1488 32.0913C32.1488 32.6135 31.7254 33.0368 31.2033 33.0368ZM31.2033 25.9456H8.79649C8.27433 25.9456 7.85099 25.5222 7.85099 25.0001C7.85099 24.4779 8.27433 24.0546 8.79649 24.0546H31.2033C31.7254 24.0546 32.1488 24.4779 32.1488 25.0001C32.1488 25.5222 31.7254 25.9456 31.2033 25.9456Z" fill="#FFBC6B"/>
</svg>
