<svg width="85" height="70" viewBox="0 0 85 70" fill="none" xmlns="http://www.w3.org/2000/svg">
<g clip-path="url(#clip0)">
<path d="M59.7865 1.28458C59.0264 0.934394 58.1308 1.07066 57.5091 1.63088L54.2288 4.53534C54.1396 4.61477 54.0049 4.61429 53.9162 4.5344L49.4529 0.542483C48.6457 -0.180828 47.4236 -0.180828 46.6164 0.542483L42.1572 4.53073C42.0675 4.61087 41.9319 4.61087 41.8422 4.53073L37.3825 0.542483C36.5753 -0.180709 35.3532 -0.180709 34.546 0.542483L30.0822 4.5344C29.9928 4.61429 29.8578 4.61465 29.768 4.53523L26.4848 1.63088C25.6137 0.856272 24.2796 0.934394 23.505 1.80544C23.1576 2.19605 22.9676 2.70166 22.9716 3.22429V46.7758C22.9638 47.9433 23.9039 48.896 25.0713 48.9038C25.5943 48.9074 26.0999 48.7168 26.4907 48.3692L29.771 45.4648C29.8602 45.3854 29.9948 45.3858 30.0836 45.4657L34.5468 49.4576C35.3541 50.1809 36.5761 50.1809 37.3833 49.4576L41.843 45.4694C41.9327 45.3893 42.0683 45.3893 42.158 45.4694L46.6177 49.4575C47.4251 50.1805 48.647 50.1805 49.4542 49.4575L53.9183 45.4656C54.0077 45.3857 54.1426 45.3854 54.2325 45.4648L57.5157 48.3691C58.3871 49.1434 59.7211 49.0647 60.4953 48.1933C60.8421 47.803 61.0319 47.298 61.0281 46.7758V3.22429C61.0392 2.38763 60.5509 1.62473 59.7865 1.28458ZM30.7965 16.9633H42.5664C43.0885 16.9633 43.5119 17.3866 43.5119 17.9088C43.5119 18.4309 43.0885 18.8543 42.5664 18.8543H30.7965C30.2743 18.8543 29.851 18.4309 29.851 17.9088C29.851 17.3866 30.2743 16.9633 30.7965 16.9633ZM53.2033 33.0368H30.7965C30.2743 33.0368 29.851 32.6135 29.851 32.0913C29.851 31.5692 30.2743 31.1458 30.7965 31.1458H53.2033C53.7254 31.1458 54.1488 31.5692 54.1488 32.0913C54.1488 32.6135 53.7254 33.0368 53.2033 33.0368ZM53.2033 25.9456H30.7965C30.2743 25.9456 29.851 25.5222 29.851 25.0001C29.851 24.4779 30.2743 24.0546 30.7965 24.0546H53.2033C53.7254 24.0546 54.1488 24.4779 54.1488 25.0001C54.1488 25.5222 53.7254 25.9456 53.2033 25.9456Z" fill="#FFBC6B"/>
</g>
<path d="M1.13086 58.4336H3.67383C4.85352 58.4336 5.70508 58.6055 6.22852 58.9492C6.75586 59.293 7.01953 59.8359 7.01953 60.5781C7.01953 61.0781 6.89062 61.4941 6.63281 61.8262C6.375 62.1582 6.00391 62.3672 5.51953 62.4531V62.5117C6.12109 62.625 6.5625 62.8496 6.84375 63.1855C7.12891 63.5176 7.27148 63.9688 7.27148 64.5391C7.27148 65.3086 7.00195 65.9121 6.46289 66.3496C5.92773 66.7832 5.18164 67 4.22461 67H1.13086V58.4336ZM2.53125 61.9727H3.87891C4.46484 61.9727 4.89258 61.8809 5.16211 61.6973C5.43164 61.5098 5.56641 61.1934 5.56641 60.748C5.56641 60.3457 5.41992 60.0547 5.12695 59.875C4.83789 59.6953 4.37695 59.6055 3.74414 59.6055H2.53125V61.9727ZM2.53125 63.1094V65.8223H4.01953C4.60547 65.8223 5.04688 65.7109 5.34375 65.4883C5.64453 65.2617 5.79492 64.9062 5.79492 64.4219C5.79492 63.9766 5.64258 63.6465 5.33789 63.4316C5.0332 63.2168 4.57031 63.1094 3.94922 63.1094H2.53125ZM9.05273 67V58.4336H10.4531V67H9.05273ZM12.7207 67V58.4336H14.1211V65.7988H17.748V67H12.7207ZM19.2246 67V58.4336H20.625V65.7988H24.252V67H19.2246ZM34.5176 61.0234C34.5176 61.918 34.2246 62.6035 33.6387 63.0801C33.0527 63.5566 32.2188 63.7949 31.1367 63.7949H30.2461V67H28.8457V58.4336H31.3125C32.3828 58.4336 33.1836 58.6523 33.7148 59.0898C34.25 59.5273 34.5176 60.1719 34.5176 61.0234ZM30.2461 62.6172H30.9902C31.709 62.6172 32.2363 62.4922 32.5723 62.2422C32.9082 61.9922 33.0762 61.6016 33.0762 61.0703C33.0762 60.5781 32.9258 60.2109 32.625 59.9688C32.3242 59.7266 31.8555 59.6055 31.2188 59.6055H30.2461V62.6172ZM41.543 67L40.6875 64.6211H37.4121L36.5742 67H35.0977L38.3027 58.3984H39.8262L43.0312 67H41.543ZM40.3184 63.4141L39.5156 61.082C39.457 60.9258 39.375 60.6797 39.2695 60.3438C39.168 60.0078 39.0977 59.7617 39.0586 59.6055C38.9531 60.0859 38.7988 60.6113 38.5957 61.1816L37.8223 63.4141H40.3184ZM46.582 62.3418L48.6094 58.4336H50.1328L47.2793 63.6777V67H45.873V63.7246L43.0312 58.4336H44.5547L46.582 62.3418ZM54.9668 67L52.4824 59.8457H52.4355C52.502 60.9082 52.5352 61.9043 52.5352 62.834V67H51.2637V58.4336H53.2383L55.6172 65.248H55.6523L58.1016 58.4336H60.082V67H58.7344V62.7637C58.7344 62.3379 58.7441 61.7832 58.7637 61.0996C58.7871 60.416 58.8066 60.002 58.8223 59.8574H58.7754L56.2031 67H54.9668ZM67.1836 67H62.3379V58.4336H67.1836V59.6172H63.7383V61.9492H66.9668V63.1211H63.7383V65.8105H67.1836V67ZM76.1777 67H74.4609L70.248 60.1738H70.2012L70.2305 60.5547C70.2852 61.2812 70.3125 61.9453 70.3125 62.5469V67H69.041V58.4336H70.7402L74.9414 65.2246H74.9766C74.9688 65.1348 74.9531 64.8086 74.9297 64.2461C74.9062 63.6797 74.8945 63.2383 74.8945 62.9219V58.4336H76.1777V67ZM81.3984 67H79.998V59.6348H77.4785V58.4336H83.918V59.6348H81.3984V67Z" fill="#616161"/>
<defs>
<clipPath id="clip0">
<rect x="17" width="50" height="50" fill="white"/>
</clipPath>
</defs>
</svg>
