<svg width="50" height="50" viewBox="0 0 50 50" fill="none" xmlns="http://www.w3.org/2000/svg">
<path d="M13.7626 32.3023C13.7626 31.1774 13.475 30.266 13.1196 30.266C12.7647 30.266 12.4766 31.1774 12.4766 32.3023C12.4766 33.4272 12.7647 34.3387 13.1196 34.3387C13.475 34.3387 13.7626 33.4272 13.7626 32.3023Z" fill="#1FC157"/>
<path d="M45.4918 8.0601H4.5082C2.02196 8.0601 0 10.1445 0 12.6302V13.388H50V12.6302C50 10.1445 47.978 8.0601 45.4918 8.0601Z" fill="#1FC157"/>
<path d="M16.0353 35.8607C17.4852 35.8617 18.791 34.9828 19.3359 33.6397C19.8807 32.296 19.5563 30.7559 18.5151 29.7468C17.474 28.7376 15.9249 28.4607 14.5988 29.0472C16.0337 30.9795 16.0337 33.6242 14.5988 35.5565C15.0513 35.7571 15.5406 35.8607 16.0353 35.8607Z" fill="#1FC157"/>
<path d="M0 37.3698C0 39.8555 2.02196 41.9399 4.5082 41.9399H45.4918C47.978 41.9399 50 39.8555 50 37.3698V22.8142H0V37.3698ZM10.2037 26.8304C11.2363 26.8299 12.2476 27.1228 13.1196 27.6757C15.411 26.229 18.4165 26.6772 20.1855 28.7301C21.9545 30.7825 21.9545 33.8211 20.1855 35.874C18.4165 37.9264 15.411 38.3752 13.1196 36.9279C11.1526 38.1681 8.61563 38.0288 6.79591 36.5805C4.97673 35.1322 4.27179 32.6914 5.03917 30.496C5.80654 28.3006 7.87814 26.8304 10.2037 26.8304Z" fill="#1FC157"/>
<path d="M0 15.3006H50V20.9016H0V15.3006Z" fill="#1FC157"/>
<path d="M10.2037 35.8607C10.6989 35.8607 11.1883 35.7571 11.6408 35.5565C10.2053 33.6242 10.2053 30.9795 11.6408 29.0472C10.3147 28.4618 8.76664 28.7392 7.72604 29.7478C6.68597 30.7569 6.36152 32.296 6.90583 33.6391C7.45014 34.9823 8.7549 35.8607 10.2037 35.8607Z" fill="#1FC157"/>
</svg>
