<svg width="50" height="71" viewBox="0 0 50 71" fill="none" xmlns="http://www.w3.org/2000/svg">
<path d="M13.7626 32.3023C13.7626 31.1774 13.475 30.266 13.1196 30.266C12.7647 30.266 12.4766 31.1774 12.4766 32.3023C12.4766 33.4272 12.7647 34.3387 13.1196 34.3387C13.475 34.3387 13.7626 33.4272 13.7626 32.3023Z" fill="#1FC157"/>
<path d="M45.4918 8.0601H4.5082C2.02196 8.0601 0 10.1445 0 12.6302V13.388H50V12.6302C50 10.1445 47.978 8.0601 45.4918 8.0601Z" fill="#1FC157"/>
<path d="M16.0353 35.8607C17.4852 35.8617 18.791 34.9828 19.3359 33.6396C19.8807 32.2959 19.5563 30.7559 18.5151 29.7467C17.474 28.7376 15.9249 28.4607 14.5988 29.0471C16.0337 30.9795 16.0337 33.6242 14.5988 35.5565C15.0513 35.7571 15.5406 35.8607 16.0353 35.8607Z" fill="#1FC157"/>
<path d="M0 37.3698C0 39.8555 2.02196 41.9399 4.5082 41.9399H45.4918C47.978 41.9399 50 39.8555 50 37.3698V22.8142H0V37.3698ZM10.2037 26.8304C11.2363 26.8299 12.2476 27.1228 13.1196 27.6757C15.411 26.229 18.4165 26.6772 20.1855 28.7302C21.9545 30.7825 21.9545 33.8211 20.1855 35.874C18.4165 37.9264 15.411 38.3752 13.1196 36.9279C11.1526 38.1681 8.61563 38.0288 6.79591 36.5805C4.97673 35.1322 4.27179 32.6914 5.03917 30.496C5.80654 28.3006 7.87814 26.8304 10.2037 26.8304Z" fill="#1FC157"/>
<path d="M0 15.3006H50V20.9016H0V15.3006Z" fill="#1FC157"/>
<path d="M10.2037 35.8607C10.6989 35.8607 11.1883 35.7571 11.6408 35.5565C10.2053 33.6242 10.2053 30.9795 11.6408 29.0472C10.3147 28.4618 8.76664 28.7392 7.72604 29.7478C6.68597 30.7569 6.36152 32.296 6.90583 33.6391C7.45014 34.9823 8.7549 35.8607 10.2037 35.8607Z" fill="#1FC157"/>
<path d="M9.77539 60.5117C8.9707 60.5117 8.33789 60.7969 7.87695 61.3672C7.41602 61.9375 7.18555 62.7246 7.18555 63.7285C7.18555 64.7793 7.40625 65.5742 7.84766 66.1133C8.29297 66.6523 8.93555 66.9219 9.77539 66.9219C10.1387 66.9219 10.4902 66.8867 10.8301 66.8164C11.1699 66.7422 11.5234 66.6484 11.8906 66.5352V67.7363C11.2188 67.9902 10.457 68.1172 9.60547 68.1172C8.35156 68.1172 7.38867 67.7383 6.7168 66.9805C6.04492 66.2188 5.70898 65.1309 5.70898 63.7168C5.70898 62.8262 5.87109 62.0469 6.19531 61.3789C6.52344 60.7109 6.99609 60.1992 7.61328 59.8438C8.23047 59.4883 8.95508 59.3105 9.78711 59.3105C10.6621 59.3105 11.4707 59.4941 12.2129 59.8613L11.709 61.0273C11.4199 60.8906 11.1133 60.7715 10.7891 60.6699C10.4688 60.5645 10.1309 60.5117 9.77539 60.5117ZM19.0508 68L18.1953 65.6211H14.9199L14.082 68H12.6055L15.8105 59.3984H17.334L20.5391 68H19.0508ZM17.8262 64.4141L17.0234 62.082C16.9648 61.9258 16.8828 61.6797 16.7773 61.3438C16.6758 61.0078 16.6055 60.7617 16.5664 60.6055C16.4609 61.0859 16.3066 61.6113 16.1035 62.1816L15.3301 64.4141H17.8262ZM23.0703 63.418H24.043C24.6953 63.418 25.168 63.2969 25.4609 63.0547C25.7539 62.8125 25.9004 62.4531 25.9004 61.9766C25.9004 61.4922 25.7422 61.1445 25.4258 60.9336C25.1094 60.7227 24.6328 60.6172 23.9961 60.6172H23.0703V63.418ZM23.0703 64.5781V68H21.6699V59.4336H24.0898C25.1953 59.4336 26.0137 59.6406 26.5449 60.0547C27.0762 60.4688 27.3418 61.0938 27.3418 61.9297C27.3418 62.9961 26.7871 63.7559 25.6777 64.209L28.0977 68H26.5039L24.4531 64.5781H23.0703ZM36.3125 63.6348C36.3125 65.0488 35.9199 66.1309 35.1348 66.8809C34.3496 67.627 33.2188 68 31.7422 68H29.3457V59.4336H31.9941C33.3574 59.4336 34.418 59.8008 35.1758 60.5352C35.9336 61.2695 36.3125 62.3027 36.3125 63.6348ZM34.8359 63.6816C34.8359 61.6309 33.877 60.6055 31.959 60.6055H30.7461V66.8223H31.7422C33.8047 66.8223 34.8359 65.7754 34.8359 63.6816ZM43.0977 65.6738C43.0977 66.4355 42.8223 67.0332 42.2715 67.4668C41.7207 67.9004 40.9609 68.1172 39.9922 68.1172C39.0234 68.1172 38.2305 67.9668 37.6133 67.666V66.3418C38.0039 66.5254 38.418 66.6699 38.8555 66.7754C39.2969 66.8809 39.707 66.9336 40.0859 66.9336C40.6406 66.9336 41.0488 66.8281 41.3105 66.6172C41.5762 66.4062 41.709 66.123 41.709 65.7676C41.709 65.4473 41.5879 65.1758 41.3457 64.9531C41.1035 64.7305 40.6035 64.4668 39.8457 64.1621C39.0645 63.8457 38.5137 63.4844 38.1934 63.0781C37.873 62.6719 37.7129 62.1836 37.7129 61.6133C37.7129 60.8984 37.9668 60.3359 38.4746 59.9258C38.9824 59.5156 39.6641 59.3105 40.5195 59.3105C41.3398 59.3105 42.1562 59.4902 42.9688 59.8496L42.5234 60.9922C41.7617 60.6719 41.082 60.5117 40.4844 60.5117C40.0312 60.5117 39.6875 60.6113 39.4531 60.8105C39.2188 61.0059 39.1016 61.2656 39.1016 61.5898C39.1016 61.8125 39.1484 62.0039 39.2422 62.1641C39.3359 62.3203 39.4902 62.4688 39.7051 62.6094C39.9199 62.75 40.3066 62.9355 40.8652 63.166C41.4941 63.4277 41.9551 63.6719 42.248 63.8984C42.541 64.125 42.7559 64.3809 42.8926 64.666C43.0293 64.9512 43.0977 65.2871 43.0977 65.6738Z" fill="#616161"/>
</svg>
