<svg width="512" height="512" viewBox="0 0 512 512" fill="none" xmlns="http://www.w3.org/2000/svg">
<g clip-path="url(#clip0)">
<path d="M255.001 466.5C273.226 466.5 288.001 451.725 288.001 433.5C288.001 415.275 273.226 400.5 255.001 400.5C236.776 400.5 222.001 415.275 222.001 433.5C222.001 451.725 236.776 466.5 255.001 466.5Z" fill="#FFBC6B"/>
<path d="M506.632 154.864C440.902 84.341 351.895 45.501 255.997 45.5C160.107 45.501 71.0999 84.341 5.36894 154.864C-2.16106 162.944 -1.71606 175.6 6.36394 183.131C14.4449 190.661 27.0999 190.217 34.6309 182.136C92.7109 119.82 171.327 85.501 256.004 85.5C340.674 85.501 419.29 119.82 477.37 182.136C481.309 186.362 486.65 188.5 492.005 188.5C496.888 188.5 501.783 186.722 505.637 183.131C513.717 175.599 514.163 162.944 506.632 154.864Z" fill="#FFBC6B"/>
<path d="M433.194 237.458C384.607 188.504 321.678 161.545 255.998 161.547C190.303 161.548 127.373 188.508 78.801 237.46C71.021 245.301 71.07 257.964 78.911 265.744C86.752 273.524 99.4149 273.475 107.195 265.634C148.2 224.308 201.046 201.548 255.998 201.547C310.936 201.545 363.782 224.306 404.802 265.636C408.712 269.575 413.854 271.547 418.998 271.547C424.09 271.547 429.186 269.613 433.088 265.742C440.927 257.961 440.975 245.298 433.194 237.458Z" fill="#FFBC6B"/>
<path d="M353.151 320.292C327.131 294.513 289.834 278.5 255.812 278.5C255.808 278.5 255.801 278.5 255.797 278.5H254.356C254.35 278.5 254.347 278.5 254.341 278.5C220.318 278.5 183.018 294.514 156.999 320.292C149.153 328.066 149.094 340.729 156.868 348.576C160.779 352.523 165.927 354.5 171.076 354.5C176.163 354.5 181.252 352.571 185.151 348.708C203.674 330.356 230.831 318.5 254.343 318.5C254.346 318.5 254.35 318.5 254.353 318.5H255.8C255.804 318.5 255.805 318.5 255.809 318.5C279.318 318.5 306.477 330.357 324.998 348.708C332.844 356.481 345.509 356.425 353.282 348.576C361.057 340.73 360.998 328.066 353.151 320.292Z" fill="#FFBC6B"/>
</g>
<defs>
<clipPath id="clip0">
<rect width="512.001" height="512.001" fill="white"/>
</clipPath>
</defs>
</svg>
