<svg width="50" height="50" viewBox="0 0 50 50" fill="none" xmlns="http://www.w3.org/2000/svg">
<g clip-path="url(#clip0)">
<path d="M22.2098 24.4642C22.2098 24.9573 21.81 25.3571 21.3169 25.3571C20.8239 25.3571 20.4241 24.9573 20.4241 24.4642C20.4241 23.9712 20.8239 23.5714 21.3169 23.5714C21.81 23.5714 22.2098 23.9712 22.2098 24.4642Z" fill="#FFBC6B"/>
<path d="M24.8884 17.3214C18.971 17.3214 14.1741 22.1183 14.1741 28.0357C14.1741 33.953 18.971 38.75 24.8884 38.75C30.8057 38.75 35.6027 33.953 35.6027 28.0357C35.5961 22.1209 30.8031 17.3279 24.8884 17.3214ZM21.3169 21.7857C22.7962 21.7857 23.9955 22.985 23.9955 24.4642C23.9955 25.9435 22.7962 27.1428 21.3169 27.1428C19.8377 27.1428 18.6384 25.9435 18.6384 24.4642C18.6384 22.985 19.8377 21.7857 21.3169 21.7857ZM20.1625 34.0241L18.8999 32.7615L29.6142 22.0473L30.8768 23.3098L20.1625 34.0241ZM28.4598 34.2857C26.9806 34.2857 25.7812 33.0863 25.7812 31.6071C25.7812 30.1279 26.9806 28.9285 28.4598 28.9285C29.939 28.9285 31.1384 30.1279 31.1384 31.6071C31.1384 33.0863 29.939 34.2857 28.4598 34.2857Z" fill="#FFBC6B"/>
<path d="M29.3526 31.6071C29.3526 32.1001 28.9528 32.4999 28.4598 32.4999C27.9667 32.4999 27.5669 32.1001 27.5669 31.6071C27.5669 31.114 27.9667 30.7142 28.4598 30.7142C28.9528 30.7142 29.3526 31.114 29.3526 31.6071Z" fill="#FFBC6B"/>
<path d="M29.3571 -5.00134C28.7276 -5.00701 28.1225 -4.75502 27.683 -4.3038C26.1061 -2.8529 23.68 -2.8529 22.1027 -4.3038C21.6593 -4.75022 21.0559 -5.00134 20.4268 -5.00134C19.7977 -5.00134 19.1943 -4.75022 18.751 -4.3038C18.3233 -3.92712 17.8315 -3.63023 17.2992 -3.42707L20.9761 3.92723H28.8008L32.4778 -3.42794C31.9463 -3.63067 31.4554 -3.92756 31.0286 -4.3038C30.59 -4.75502 29.9862 -5.00657 29.3571 -5.00134Z" fill="#FFBC6B"/>
<path d="M43.6384 26.25C43.628 16.8854 36.0391 9.29614 26.6741 9.28568H23.1027C13.7377 9.29614 6.14889 16.8854 6.13843 26.25V42.3214C6.13843 43.8006 7.33777 45 8.817 45H40.9599C42.4391 45 43.6384 43.8006 43.6384 42.3214V26.25ZM24.8884 40.5357C17.9849 40.5357 12.3884 34.9392 12.3884 28.0357C12.3884 21.1322 17.9849 15.5357 24.8884 15.5357C31.7919 15.5357 37.3884 21.1322 37.3884 28.0357C37.381 34.9361 31.7889 40.5283 24.8884 40.5357Z" fill="#FFBC6B"/>
<path d="M30.2455 6.60706C30.2455 6.11398 29.8458 5.7142 29.3527 5.7142H20.4241C19.931 5.7142 19.5312 6.11398 19.5312 6.60706C19.5312 7.10014 19.931 7.49992 20.4241 7.49992H29.3527C29.8458 7.49992 30.2455 7.10014 30.2455 6.60706Z" fill="#FFBC6B"/>
<path d="M43.9066 7.05353C42.9283 7.2362 41.9177 7.01734 41.1029 6.44666C40.6473 6.09658 40.0657 5.95402 39.4998 6.0543C38.9344 6.15457 38.437 6.48808 38.1296 6.97331C37.5581 7.78769 36.6826 8.33832 35.7008 8.50006C35.4685 8.54453 35.2326 8.56851 34.9954 8.57156C34.2469 8.55194 33.5193 8.32001 32.8976 7.90192C32.592 7.69091 32.2449 7.54791 31.8796 7.48208C31.9799 7.20132 32.0309 6.9053 32.0313 6.6071C32.0283 6.14149 31.9088 5.68416 31.683 5.27697C32.2044 5.0943 32.7576 5.02106 33.3083 5.06247C33.8776 5.13572 34.4522 4.96656 34.8917 4.59686C35.3307 4.22673 35.5953 3.69005 35.6206 3.11632C35.7165 2.12755 36.1978 1.21682 36.9599 0.580314C37.7181 -0.0631713 38.7012 -0.377938 39.6921 -0.294669C40.2602 -0.228838 40.8304 -0.396249 41.2725 -0.758972L42.4243 0.607343C41.6718 1.26173 40.6852 1.58085 39.6921 1.49105C39.1223 1.41039 38.5455 1.57562 38.1043 1.94489C37.6636 2.31458 37.3998 2.85387 37.3797 3.42848C37.2856 4.41768 36.8043 5.32929 36.0405 5.96449C35.6311 6.32721 35.1415 6.58748 34.6118 6.72307C34.8651 6.79195 35.131 6.8011 35.3887 6.7501C35.9546 6.64721 36.4524 6.31413 36.7637 5.83021C37.9618 4.14477 40.2903 3.73191 41.9957 4.90204C42.4526 5.25255 43.0355 5.39468 43.6027 5.29484L43.9066 7.05353Z" fill="#FFBC6B"/>
</g>
<defs>
<clipPath id="clip0">
<rect width="50" height="50" fill="white"/>
</clipPath>
</defs>
</svg>
