<svg width="70" height="64" viewBox="0 0 70 64" fill="none" xmlns="http://www.w3.org/2000/svg">
<path d="M58.2834 10.9773C57.7112 10.3795 56.7842 10.3795 56.212 10.9773C55.6398 11.5752 55.6398 12.5439 56.212 13.1417C56.7656 13.7202 57.0703 14.4885 57.0703 15.3061C57.0703 16.9937 55.7557 18.3673 54.1406 18.3673H54.0664C53.3228 9.79908 46.3201 3.06122 37.9297 3.06122H35H30.6055C29.7042 3.06122 28.6868 3.15837 27.6654 3.36612C25.7256 1.2152 23.072 0 20.2539 0C19.4442 0 18.7891 0.684592 18.7891 1.53061V8.42133C17.0338 10.3764 15.7507 12.7397 15.0525 15.3061H14.3945C11.9713 15.3061 10 17.3659 10 19.898V23.1633C10 25.6953 11.9713 27.7551 14.3945 27.7551C14.3988 27.7596 15.3802 27.7551 16.1541 27.7596C17.154 29.8014 18.5502 31.619 20.2468 33.0853C20.2539 35.1316 20.2539 38.4694 20.2539 38.4694C20.2539 39.3154 20.9091 40 21.7188 40H27.5781C28.3878 40 29.1406 39.3154 29.1406 38.4694V36.87C29.627 36.9163 30.1148 36.9388 30.6055 36.9388H37.9297V38.4694C37.9297 39.3154 38.5849 40 39.3945 40H45.3516C46.1612 40 46.8164 39.3154 46.8164 38.4694L46.8222 34.2109C50.9463 31.3984 53.5969 26.5291 54.0477 21.4286H54.1406C57.3722 21.4286 60 18.6828 60 15.3061C60 13.6709 59.3906 12.1343 58.2834 10.9773ZM21.7045 18.3971C20.8948 18.3971 20.2239 17.6977 20.2239 16.8516C20.2239 16.0056 20.8947 15.3061 21.7045 15.3061C22.5142 15.3061 23.1836 16.0056 23.1836 16.8516C23.1836 17.6977 22.5142 18.3971 21.7045 18.3971ZM40.8594 12.2449H29.1406C28.331 12.2449 27.5781 11.5603 27.5781 10.7143C27.5781 9.86827 28.331 9.18367 29.1406 9.18367H40.8594C41.669 9.18367 42.3242 9.86827 42.3242 10.7143C42.3242 11.5603 41.669 12.2449 40.8594 12.2449Z" fill="#1FC157"/>
<path d="M8.73633 56.7051C8.73633 57.7441 8.53711 58.6191 8.13867 59.3301C7.74414 60.041 7.16797 60.541 6.41016 60.8301L8.46094 63.0391H6.57422L4.95703 61.1172H4.72852C3.43555 61.1172 2.44141 60.7344 1.74609 59.9688C1.05469 59.1992 0.708984 58.1074 0.708984 56.6934C0.708984 55.2793 1.05664 54.1934 1.75195 53.4355C2.45117 52.6777 3.44727 52.2988 4.74023 52.2988C6.01367 52.2988 6.99805 52.6836 7.69336 53.4531C8.38867 54.2227 8.73633 55.3066 8.73633 56.7051ZM2.19727 56.7051C2.19727 57.7598 2.41016 58.5605 2.83594 59.1074C3.26172 59.6504 3.89258 59.9219 4.72852 59.9219C5.56055 59.9219 6.1875 59.6523 6.60938 59.1133C7.03516 58.5742 7.24805 57.7715 7.24805 56.7051C7.24805 55.6543 7.03711 54.8574 6.61523 54.3145C6.19727 53.7715 5.57227 53.5 4.74023 53.5C3.90039 53.5 3.26562 53.7715 2.83594 54.3145C2.41016 54.8574 2.19727 55.6543 2.19727 56.7051ZM17.291 52.4336V57.9766C17.291 58.6094 17.1543 59.1641 16.8809 59.6406C16.6113 60.1133 16.2188 60.4785 15.7031 60.7363C15.1914 60.9902 14.5781 61.1172 13.8633 61.1172C12.8008 61.1172 11.9746 60.8359 11.3848 60.2734C10.7949 59.7109 10.5 58.9375 10.5 57.9531V52.4336H11.9062V57.8535C11.9062 58.5605 12.0703 59.082 12.3984 59.418C12.7266 59.7539 13.2305 59.9219 13.9102 59.9219C15.2305 59.9219 15.8906 59.2285 15.8906 57.8418V52.4336H17.291ZM19.4824 61V52.4336H20.8828V61H19.4824ZM26.7949 53.5117C25.9902 53.5117 25.3574 53.7969 24.8965 54.3672C24.4355 54.9375 24.2051 55.7246 24.2051 56.7285C24.2051 57.7793 24.4258 58.5742 24.8672 59.1133C25.3125 59.6523 25.9551 59.9219 26.7949 59.9219C27.1582 59.9219 27.5098 59.8867 27.8496 59.8164C28.1895 59.7422 28.543 59.6484 28.9102 59.5352V60.7363C28.2383 60.9902 27.4766 61.1172 26.625 61.1172C25.3711 61.1172 24.4082 60.7383 23.7363 59.9805C23.0645 59.2188 22.7285 58.1309 22.7285 56.7168C22.7285 55.8262 22.8906 55.0469 23.2148 54.3789C23.543 53.7109 24.0156 53.1992 24.6328 52.8438C25.25 52.4883 25.9746 52.3105 26.8066 52.3105C27.6816 52.3105 28.4902 52.4941 29.2324 52.8613L28.7285 54.0273C28.4395 53.8906 28.1328 53.7715 27.8086 53.6699C27.4883 53.5645 27.1504 53.5117 26.7949 53.5117ZM37.2949 61H35.6719L32.9824 57.1211L32.1562 57.7949V61H30.7559V52.4336H32.1562V56.5234C32.5391 56.0547 32.9199 55.6035 33.2988 55.1699L35.6133 52.4336H37.207C35.7109 54.1914 34.6387 55.4434 33.9902 56.1895L37.2949 61ZM46.4883 58.6738C46.4883 59.4355 46.2129 60.0332 45.6621 60.4668C45.1113 60.9004 44.3516 61.1172 43.3828 61.1172C42.4141 61.1172 41.6211 60.9668 41.0039 60.666V59.3418C41.3945 59.5254 41.8086 59.6699 42.2461 59.7754C42.6875 59.8809 43.0977 59.9336 43.4766 59.9336C44.0312 59.9336 44.4395 59.8281 44.7012 59.6172C44.9668 59.4062 45.0996 59.123 45.0996 58.7676C45.0996 58.4473 44.9785 58.1758 44.7363 57.9531C44.4941 57.7305 43.9941 57.4668 43.2363 57.1621C42.4551 56.8457 41.9043 56.4844 41.584 56.0781C41.2637 55.6719 41.1035 55.1836 41.1035 54.6133C41.1035 53.8984 41.3574 53.3359 41.8652 52.9258C42.373 52.5156 43.0547 52.3105 43.9102 52.3105C44.7305 52.3105 45.5469 52.4902 46.3594 52.8496L45.9141 53.9922C45.1523 53.6719 44.4727 53.5117 43.875 53.5117C43.4219 53.5117 43.0781 53.6113 42.8438 53.8105C42.6094 54.0059 42.4922 54.2656 42.4922 54.5898C42.4922 54.8125 42.5391 55.0039 42.6328 55.1641C42.7266 55.3203 42.8809 55.4688 43.0957 55.6094C43.3105 55.75 43.6973 55.9355 44.2559 56.166C44.8848 56.4277 45.3457 56.6719 45.6387 56.8984C45.9316 57.125 46.1465 57.3809 46.2832 57.666C46.4199 57.9512 46.4883 58.2871 46.4883 58.6738ZM53.4609 61L52.6055 58.6211H49.3301L48.4922 61H47.0156L50.2207 52.3984H51.7441L54.9492 61H53.4609ZM52.2363 57.4141L51.4336 55.082C51.375 54.9258 51.293 54.6797 51.1875 54.3438C51.0859 54.0078 51.0156 53.7617 50.9766 53.6055C50.8711 54.0859 50.7168 54.6113 50.5137 55.1816L49.7402 57.4141H52.2363ZM60.9609 52.4336H62.4141L59.4141 61H57.9375L54.9492 52.4336H56.3906L58.1777 57.7598C58.2715 58.0137 58.3711 58.3418 58.4766 58.7441C58.582 59.1426 58.6504 59.4395 58.6816 59.6348C58.7324 59.3379 58.8105 58.9941 58.916 58.6035C59.0215 58.2129 59.1074 57.9238 59.1738 57.7363L60.9609 52.4336ZM68.3906 61H63.5449V52.4336H68.3906V53.6172H64.9453V55.9492H68.1738V57.1211H64.9453V59.8105H68.3906V61Z" fill="#616161"/>
</svg>
