<svg width="50" height="40" viewBox="0 0 50 40" fill="none" xmlns="http://www.w3.org/2000/svg">
<path d="M48.2834 10.9773C47.7112 10.3795 46.7842 10.3795 46.212 10.9773C45.6398 11.5752 45.6398 12.5439 46.212 13.1417C46.7656 13.7202 47.0703 14.4885 47.0703 15.3061C47.0703 16.9937 45.7557 18.3673 44.1406 18.3673H44.0664C43.3228 9.79908 36.3201 3.06122 27.9297 3.06122H25H20.6055C19.7042 3.06122 18.6868 3.15837 17.6654 3.36612C15.7256 1.2152 13.072 0 10.2539 0C9.44424 0 8.78906 0.684592 8.78906 1.53061V8.42133C7.03379 10.3764 5.75068 12.7397 5.05254 15.3061H4.39453C1.97129 15.3061 0 17.3659 0 19.898V23.1633C0 25.6953 1.97129 27.7551 4.39453 27.7551C4.39883 27.7596 5.38018 27.7551 6.1541 27.7596C7.154 29.8014 8.5502 31.619 10.2468 33.0853C10.2539 35.1316 10.2539 38.4694 10.2539 38.4694C10.2539 39.3154 10.9091 40 11.7188 40H17.5781C18.3878 40 19.1406 39.3154 19.1406 38.4694V36.87C19.627 36.9163 20.1148 36.9388 20.6055 36.9388H27.9297V38.4694C27.9297 39.3154 28.5849 40 29.3945 40H35.3516C36.1612 40 36.8164 39.3154 36.8164 38.4694L36.8222 34.2109C40.9463 31.3984 43.5969 26.5291 44.0477 21.4286H44.1406C47.3722 21.4286 50 18.6828 50 15.3061C50 13.6709 49.3906 12.1343 48.2834 10.9773ZM11.7045 18.3971C10.8948 18.3971 10.2239 17.6977 10.2239 16.8516C10.2239 16.0056 10.8947 15.3061 11.7045 15.3061C12.5142 15.3061 13.1836 16.0056 13.1836 16.8516C13.1836 17.6977 12.5142 18.3971 11.7045 18.3971ZM30.8594 12.2449H19.1406C18.331 12.2449 17.5781 11.5603 17.5781 10.7143C17.5781 9.86827 18.331 9.18367 19.1406 9.18367H30.8594C31.669 9.18367 32.3242 9.86827 32.3242 10.7143C32.3242 11.5603 31.669 12.2449 30.8594 12.2449Z" fill="#1FC157"/>
</svg>
