<svg width="45" height="49" viewBox="0 0 45 49" fill="none" xmlns="http://www.w3.org/2000/svg">
<path d="M15.3409 5.32597C15.3409 1.46426 18.4719 -1.66667 22.3341 -1.66667C26.1953 -1.66667 29.3262 1.46426 29.3262 5.32597C29.3262 9.18769 26.1953 12.3186 22.3341 12.3186C18.4719 12.3186 15.3409 9.18769 15.3409 5.32597ZM25.6942 17.0827C25.7649 15.5603 26.2885 14.1508 27.1322 12.9853C26.5401 12.8614 25.9288 12.7956 25.3011 12.7956H19.3677C18.7421 12.7956 18.1309 12.8608 17.5421 12.9836C18.4395 14.2286 18.9768 15.7483 18.9855 17.3941C20.0754 16.7938 21.327 16.4523 22.657 16.4523C23.7359 16.4523 24.7628 16.677 25.6942 17.0827ZM26.8784 17.7099C28.9096 18.9834 30.3339 21.1385 30.5932 23.6401C31.4215 24.0271 32.3409 24.2497 33.3157 24.2497C36.8742 24.2497 39.7584 21.3655 39.7584 17.8075C39.7584 14.2489 36.8742 11.3647 33.3157 11.3647C29.7911 11.3652 26.9321 14.1979 26.8784 17.7099ZM22.657 30.9019C26.2156 30.9019 29.0998 28.0166 29.0998 24.4586C29.0998 20.9011 26.215 18.0163 22.657 18.0163C19.099 18.0163 16.2132 20.9011 16.2132 24.4586C16.2132 28.0171 19.0996 30.9019 22.657 30.9019ZM25.3899 31.3405H19.923C15.3744 31.3405 11.6738 35.0415 11.6738 39.5896V46.2758L11.6908 46.38L12.1513 46.5247C16.4922 47.8805 20.2635 48.3333 23.3675 48.3333C29.4304 48.3333 32.9445 46.6053 33.1611 46.4946L33.5914 46.2764H33.6375V39.5896C33.6391 35.0415 29.9386 31.3405 25.3899 31.3405ZM36.0497 24.6899H30.625C30.5663 26.8604 29.6398 28.8142 28.1744 30.2204C32.2176 31.4227 35.1758 35.1715 35.1758 39.6001V41.6609C40.532 41.464 43.6185 39.946 43.8219 39.8446L44.2523 39.6264H44.2983V32.9386C44.2983 28.3905 40.5978 24.6899 36.0497 24.6899ZM11.3526 24.2497C12.6129 24.2497 13.7856 23.8824 14.779 23.2558C15.0948 21.1961 16.1989 19.3962 17.7762 18.1704C17.7827 18.0498 17.7942 17.9303 17.7942 17.8086C17.7942 14.25 14.9095 11.3658 11.3526 11.3658C7.79348 11.3658 4.9098 14.25 4.9098 17.8086C4.90926 21.366 7.79348 24.2497 11.3526 24.2497ZM17.138 30.2204C15.6797 28.8219 14.7565 26.8773 14.6891 24.7212C14.4879 24.7064 14.2889 24.6899 14.0838 24.6899H8.61747C4.06882 24.6899 0.368286 28.3905 0.368286 32.9386V39.6247L0.385281 39.7284L0.845792 39.8731C4.32813 40.9608 7.43604 41.4613 10.1355 41.6197V39.6001C10.1366 35.1715 13.0943 31.4227 17.138 30.2204Z" fill="#1FC157"/>
</svg>
