<svg width="64" height="74" viewBox="0 0 64 74" fill="none" xmlns="http://www.w3.org/2000/svg">
<g clip-path="url(#clip0)">
<path d="M21.3409 5.32598C21.3409 1.46426 24.4719 -1.66667 28.3341 -1.66667C32.1953 -1.66667 35.3262 1.46426 35.3262 5.32598C35.3262 9.18769 32.1953 12.3186 28.3341 12.3186C24.4719 12.3186 21.3409 9.18769 21.3409 5.32598ZM31.6942 17.0827C31.7649 15.5603 32.2885 14.1508 33.1322 12.9853C32.5401 12.8614 31.9288 12.7956 31.3011 12.7956H25.3677C24.7421 12.7956 24.1309 12.8608 23.5421 12.9836C24.4395 14.2286 24.9768 15.7483 24.9855 17.3941C26.0754 16.7938 27.327 16.4523 28.657 16.4523C29.7359 16.4523 30.7628 16.677 31.6942 17.0827ZM32.8784 17.7099C34.9096 18.9834 36.3339 21.1385 36.5932 23.6401C37.4215 24.0271 38.3409 24.2497 39.3157 24.2497C42.8742 24.2497 45.7584 21.3655 45.7584 17.8075C45.7584 14.2489 42.8742 11.3647 39.3157 11.3647C35.7911 11.3653 32.9321 14.1979 32.8784 17.7099ZM28.657 30.9019C32.2156 30.9019 35.0998 28.0166 35.0998 24.4586C35.0998 20.9011 32.215 18.0163 28.657 18.0163C25.099 18.0163 22.2132 20.9011 22.2132 24.4586C22.2132 28.0171 25.0996 30.9019 28.657 30.9019ZM31.3899 31.3405H25.923C21.3744 31.3405 17.6738 35.0416 17.6738 39.5896V46.2758L17.6908 46.38L18.1513 46.5247C22.4922 47.8805 26.2635 48.3333 29.3675 48.3333C35.4304 48.3333 38.9445 46.6053 39.1611 46.4946L39.5914 46.2764H39.6375V39.5896C39.6391 35.0416 35.9386 31.3405 31.3899 31.3405ZM42.0497 24.6899H36.625C36.5663 26.8604 35.6398 28.8142 34.1744 30.2204C38.2176 31.4227 41.1758 35.1715 41.1758 39.6001V41.6609C46.532 41.464 49.6185 39.946 49.8219 39.8446L50.2523 39.6264H50.2983V32.9386C50.2983 28.3905 46.5978 24.6899 42.0497 24.6899ZM17.3526 24.2497C18.6129 24.2497 19.7856 23.8824 20.779 23.2558C21.0948 21.1961 22.1989 19.3962 23.7762 18.1704C23.7827 18.0498 23.7942 17.9303 23.7942 17.8086C23.7942 14.25 20.9095 11.3658 17.3526 11.3658C13.7935 11.3658 10.9098 14.25 10.9098 17.8086C10.9093 21.366 13.7935 24.2497 17.3526 24.2497ZM23.138 30.2204C21.6797 28.8219 20.7565 26.8773 20.6891 24.7212C20.4879 24.7064 20.2889 24.6899 20.0838 24.6899H14.6175C10.0688 24.6899 6.36829 28.3905 6.36829 32.9386V39.6247L6.38528 39.7284L6.84579 39.8731C10.3281 40.9608 13.436 41.4613 16.1355 41.6197V39.6001C16.1366 35.1715 19.0943 31.4227 23.138 30.2204Z" fill="#1FC157"/>
</g>
<path d="M2.53125 66.418H3.50391C4.15625 66.418 4.62891 66.2969 4.92188 66.0547C5.21484 65.8125 5.36133 65.4531 5.36133 64.9766C5.36133 64.4922 5.20312 64.1445 4.88672 63.9336C4.57031 63.7227 4.09375 63.6172 3.45703 63.6172H2.53125V66.418ZM2.53125 67.5781V71H1.13086V62.4336H3.55078C4.65625 62.4336 5.47461 62.6406 6.00586 63.0547C6.53711 63.4688 6.80273 64.0938 6.80273 64.9297C6.80273 65.9961 6.24805 66.7559 5.13867 67.209L7.55859 71H5.96484L3.91406 67.5781H2.53125ZM13.6523 71H8.80664V62.4336H13.6523V63.6172H10.207V65.9492H13.4355V67.1211H10.207V69.8105H13.6523V71ZM16.8984 71H15.5098V62.4336H20.3438V63.6172H16.8984V66.2949H20.127V67.4844H16.8984V71ZM26.7422 71H21.8965V62.4336H26.7422V63.6172H23.2969V65.9492H26.5254V67.1211H23.2969V69.8105H26.7422V71ZM30 66.418H30.9727C31.625 66.418 32.0977 66.2969 32.3906 66.0547C32.6836 65.8125 32.8301 65.4531 32.8301 64.9766C32.8301 64.4922 32.6719 64.1445 32.3555 63.9336C32.0391 63.7227 31.5625 63.6172 30.9258 63.6172H30V66.418ZM30 67.5781V71H28.5996V62.4336H31.0195C32.125 62.4336 32.9434 62.6406 33.4746 63.0547C34.0059 63.4688 34.2715 64.0938 34.2715 64.9297C34.2715 65.9961 33.7168 66.7559 32.6074 67.209L35.0273 71H33.4336L31.3828 67.5781H30ZM37.6758 66.418H38.6484C39.3008 66.418 39.7734 66.2969 40.0664 66.0547C40.3594 65.8125 40.5059 65.4531 40.5059 64.9766C40.5059 64.4922 40.3477 64.1445 40.0312 63.9336C39.7148 63.7227 39.2383 63.6172 38.6016 63.6172H37.6758V66.418ZM37.6758 67.5781V71H36.2754V62.4336H38.6953C39.8008 62.4336 40.6191 62.6406 41.1504 63.0547C41.6816 63.4688 41.9473 64.0938 41.9473 64.9297C41.9473 65.9961 41.3926 66.7559 40.2832 67.209L42.7031 71H41.1094L39.0586 67.5781H37.6758ZM49.2656 71L48.4102 68.6211H45.1348L44.2969 71H42.8203L46.0254 62.3984H47.5488L50.7539 71H49.2656ZM48.041 67.4141L47.2383 65.082C47.1797 64.9258 47.0977 64.6797 46.9922 64.3438C46.8906 64.0078 46.8203 63.7617 46.7812 63.6055C46.6758 64.0859 46.5215 64.6113 46.3184 65.1816L45.5449 67.4141H48.041ZM51.8848 71V62.4336H53.2852V69.7988H56.9121V71H51.8848ZM63.3281 68.6738C63.3281 69.4355 63.0527 70.0332 62.502 70.4668C61.9512 70.9004 61.1914 71.1172 60.2227 71.1172C59.2539 71.1172 58.4609 70.9668 57.8438 70.666V69.3418C58.2344 69.5254 58.6484 69.6699 59.0859 69.7754C59.5273 69.8809 59.9375 69.9336 60.3164 69.9336C60.8711 69.9336 61.2793 69.8281 61.541 69.6172C61.8066 69.4062 61.9395 69.123 61.9395 68.7676C61.9395 68.4473 61.8184 68.1758 61.5762 67.9531C61.334 67.7305 60.834 67.4668 60.0762 67.1621C59.2949 66.8457 58.7441 66.4844 58.4238 66.0781C58.1035 65.6719 57.9434 65.1836 57.9434 64.6133C57.9434 63.8984 58.1973 63.3359 58.7051 62.9258C59.2129 62.5156 59.8945 62.3105 60.75 62.3105C61.5703 62.3105 62.3867 62.4902 63.1992 62.8496L62.7539 63.9922C61.9922 63.6719 61.3125 63.5117 60.7148 63.5117C60.2617 63.5117 59.918 63.6113 59.6836 63.8105C59.4492 64.0059 59.332 64.2656 59.332 64.5898C59.332 64.8125 59.3789 65.0039 59.4727 65.1641C59.5664 65.3203 59.7207 65.4688 59.9355 65.6094C60.1504 65.75 60.5371 65.9355 61.0957 66.166C61.7246 66.4277 62.1855 66.6719 62.4785 66.8984C62.7715 67.125 62.9863 67.3809 63.123 67.666C63.2598 67.9512 63.3281 68.2871 63.3281 68.6738Z" fill="#616161"/>
<defs>
<clipPath id="clip0">
<rect x="5" width="50" height="50" fill="white"/>
</clipPath>
</defs>
</svg>
