<svg width="22" height="31" viewBox="0 0 22 31" fill="none" xmlns="http://www.w3.org/2000/svg">
<path d="M21.6101 14.4026C22.0069 13.5474 21.875 12.5681 21.2656 11.8466L12.1819 1.09084C11.8852 0.739502 11.4511 0.538086 10.9905 0.538086C10.5305 0.538086 10.0962 0.739502 9.79976 1.09084L0.716017 11.8466C0.106619 12.5684 -0.0258465 13.5477 0.37155 14.4029C0.772951 15.2669 1.61752 15.8042 2.57625 15.8042H4.3621L5.63841 26.0058C5.97172 28.6688 8.27255 30.6767 10.9905 30.6767C13.7085 30.6767 16.0096 28.6688 16.3426 26.0058L17.6192 15.8042H19.4048C20.3638 15.8042 21.2087 15.2669 21.6101 14.4026Z" fill="#FFBC6B"/>
</svg>
