<svg width="90" height="74" viewBox="0 0 90 74" fill="none" xmlns="http://www.w3.org/2000/svg">
<path d="M60.3125 8.33321C60.2293 8.33321 60.1458 8.37517 60.0626 8.39577C59.9585 8.37517 59.875 8.33321 59.7918 8.33321H57.7082V2.08321C57.7082 0.937653 56.7709 0 55.625 0H24.375C21.2916 0 18.7292 2.24991 18.2291 5.20821C18.1666 5.37491 18.125 5.54161 18.125 5.72929V44.2707C18.125 47.4377 20.6873 50 23.8543 50H60.3125C61.1666 50 61.875 49.2916 61.875 48.4375V9.89571C61.875 9.0416 61.1666 8.33321 60.3125 8.33321ZM40 42.7082C32.5415 42.7082 26.4582 36.6249 26.4582 29.1668C26.4582 21.7083 32.5415 15.625 40 15.625C47.4585 15.625 53.5418 21.7083 53.5418 29.1668C53.5418 36.6249 47.4585 42.7082 40 42.7082ZM53.5418 8.33321H24.375C23.2291 8.33321 22.2918 7.39594 22.2918 6.25C22.2918 5.10406 23.2291 4.16679 24.375 4.16679H53.5418V8.33321Z" fill="#FFBC6B"/>
<path d="M43.125 34.375C42.5917 34.375 42.0584 34.1709 41.6521 33.7646L38.5271 30.6396C38.1353 30.2502 37.9167 29.7207 37.9167 29.1668V22.9168C37.9167 21.7648 38.8498 20.8332 40 20.8332C41.1501 20.8332 42.0832 21.7648 42.0832 22.9168V28.3043L44.5978 30.8189C45.4126 31.6334 45.4126 32.9498 44.5978 33.7646C44.1915 34.1709 43.6582 34.375 43.125 34.375Z" fill="#FFBC6B"/>
<path d="M4.08984 71H2.68945V63.6348H0.169922V62.4336H6.60938V63.6348H4.08984V71ZM9.32812 66.418H10.3008C10.9531 66.418 11.4258 66.2969 11.7188 66.0547C12.0117 65.8125 12.1582 65.4531 12.1582 64.9766C12.1582 64.4922 12 64.1445 11.6836 63.9336C11.3672 63.7227 10.8906 63.6172 10.2539 63.6172H9.32812V66.418ZM9.32812 67.5781V71H7.92773V62.4336H10.3477C11.4531 62.4336 12.2715 62.6406 12.8027 63.0547C13.334 63.4688 13.5996 64.0938 13.5996 64.9297C13.5996 65.9961 13.0449 66.7559 11.9355 67.209L14.3555 71H12.7617L10.7109 67.5781H9.32812ZM20.918 71L20.0625 68.6211H16.7871L15.9492 71H14.4727L17.6777 62.3984H19.2012L22.4062 71H20.918ZM19.6934 67.4141L18.8906 65.082C18.832 64.9258 18.75 64.6797 18.6445 64.3438C18.543 64.0078 18.4727 63.7617 18.4336 63.6055C18.3281 64.0859 18.1738 64.6113 17.9707 65.1816L17.1973 67.4141H19.6934ZM30.6738 71H28.957L24.7441 64.1738H24.6973L24.7266 64.5547C24.7812 65.2812 24.8086 65.9453 24.8086 66.5469V71H23.5371V62.4336H25.2363L29.4375 69.2246H29.4727C29.4648 69.1348 29.4492 68.8086 29.4258 68.2461C29.4023 67.6797 29.3906 67.2383 29.3906 66.9219V62.4336H30.6738V71ZM37.875 68.6738C37.875 69.4355 37.5996 70.0332 37.0488 70.4668C36.498 70.9004 35.7383 71.1172 34.7695 71.1172C33.8008 71.1172 33.0078 70.9668 32.3906 70.666V69.3418C32.7812 69.5254 33.1953 69.6699 33.6328 69.7754C34.0742 69.8809 34.4844 69.9336 34.8633 69.9336C35.418 69.9336 35.8262 69.8281 36.0879 69.6172C36.3535 69.4062 36.4863 69.123 36.4863 68.7676C36.4863 68.4473 36.3652 68.1758 36.123 67.9531C35.8809 67.7305 35.3809 67.4668 34.623 67.1621C33.8418 66.8457 33.291 66.4844 32.9707 66.0781C32.6504 65.6719 32.4902 65.1836 32.4902 64.6133C32.4902 63.8984 32.7441 63.3359 33.252 62.9258C33.7598 62.5156 34.4414 62.3105 35.2969 62.3105C36.1172 62.3105 36.9336 62.4902 37.7461 62.8496L37.3008 63.9922C36.5391 63.6719 35.8594 63.5117 35.2617 63.5117C34.8086 63.5117 34.4648 63.6113 34.2305 63.8105C33.9961 64.0059 33.8789 64.2656 33.8789 64.5898C33.8789 64.8125 33.9258 65.0039 34.0195 65.1641C34.1133 65.3203 34.2676 65.4688 34.4824 65.6094C34.6973 65.75 35.084 65.9355 35.6426 66.166C36.2715 66.4277 36.7324 66.6719 37.0254 66.8984C37.3184 67.125 37.5332 67.3809 37.6699 67.666C37.8066 67.9512 37.875 68.2871 37.875 68.6738ZM44.8477 71L43.9922 68.6211H40.7168L39.8789 71H38.4023L41.6074 62.3984H43.1309L46.3359 71H44.8477ZM43.623 67.4141L42.8203 65.082C42.7617 64.9258 42.6797 64.6797 42.5742 64.3438C42.4727 64.0078 42.4023 63.7617 42.3633 63.6055C42.2578 64.0859 42.1035 64.6113 41.9004 65.1816L41.127 67.4141H43.623ZM51.1113 63.5117C50.3066 63.5117 49.6738 63.7969 49.2129 64.3672C48.752 64.9375 48.5215 65.7246 48.5215 66.7285C48.5215 67.7793 48.7422 68.5742 49.1836 69.1133C49.6289 69.6523 50.2715 69.9219 51.1113 69.9219C51.4746 69.9219 51.8262 69.8867 52.166 69.8164C52.5059 69.7422 52.8594 69.6484 53.2266 69.5352V70.7363C52.5547 70.9902 51.793 71.1172 50.9414 71.1172C49.6875 71.1172 48.7246 70.7383 48.0527 69.9805C47.3809 69.2188 47.0449 68.1309 47.0449 66.7168C47.0449 65.8262 47.207 65.0469 47.5312 64.3789C47.8594 63.7109 48.332 63.1992 48.9492 62.8438C49.5664 62.4883 50.291 62.3105 51.123 62.3105C51.998 62.3105 52.8066 62.4941 53.5488 62.8613L53.0449 64.0273C52.7559 63.8906 52.4492 63.7715 52.125 63.6699C51.8047 63.5645 51.4668 63.5117 51.1113 63.5117ZM58.0312 71H56.6309V63.6348H54.1113V62.4336H60.5508V63.6348H58.0312V71ZM61.8691 71V62.4336H63.2695V71H61.8691ZM73.1426 66.7051C73.1426 68.0996 72.793 69.1836 72.0938 69.957C71.3984 70.7305 70.4121 71.1172 69.1348 71.1172C67.8418 71.1172 66.8477 70.7344 66.1523 69.9688C65.4609 69.1992 65.1152 68.1074 65.1152 66.6934C65.1152 65.2793 65.4629 64.1934 66.1582 63.4355C66.8574 62.6777 67.8535 62.2988 69.1465 62.2988C70.4199 62.2988 71.4043 62.6836 72.0996 63.4531C72.7949 64.2227 73.1426 65.3066 73.1426 66.7051ZM66.6035 66.7051C66.6035 67.7598 66.8164 68.5605 67.2422 69.1074C67.668 69.6504 68.2988 69.9219 69.1348 69.9219C69.9668 69.9219 70.5938 69.6523 71.0156 69.1133C71.4414 68.5742 71.6543 67.7715 71.6543 66.7051C71.6543 65.6543 71.4434 64.8574 71.0215 64.3145C70.6035 63.7715 69.9785 63.5 69.1465 63.5C68.3066 63.5 67.6719 63.7715 67.2422 64.3145C66.8164 64.8574 66.6035 65.6543 66.6035 66.7051ZM82.1191 71H80.4023L76.1895 64.1738H76.1426L76.1719 64.5547C76.2266 65.2812 76.2539 65.9453 76.2539 66.5469V71H74.9824V62.4336H76.6816L80.8828 69.2246H80.918C80.9102 69.1348 80.8945 68.8086 80.8711 68.2461C80.8477 67.6797 80.8359 67.2383 80.8359 66.9219V62.4336H82.1191V71ZM89.3203 68.6738C89.3203 69.4355 89.0449 70.0332 88.4941 70.4668C87.9434 70.9004 87.1836 71.1172 86.2148 71.1172C85.2461 71.1172 84.4531 70.9668 83.8359 70.666V69.3418C84.2266 69.5254 84.6406 69.6699 85.0781 69.7754C85.5195 69.8809 85.9297 69.9336 86.3086 69.9336C86.8633 69.9336 87.2715 69.8281 87.5332 69.6172C87.7988 69.4062 87.9316 69.123 87.9316 68.7676C87.9316 68.4473 87.8105 68.1758 87.5684 67.9531C87.3262 67.7305 86.8262 67.4668 86.0684 67.1621C85.2871 66.8457 84.7363 66.4844 84.416 66.0781C84.0957 65.6719 83.9355 65.1836 83.9355 64.6133C83.9355 63.8984 84.1895 63.3359 84.6973 62.9258C85.2051 62.5156 85.8867 62.3105 86.7422 62.3105C87.5625 62.3105 88.3789 62.4902 89.1914 62.8496L88.7461 63.9922C87.9844 63.6719 87.3047 63.5117 86.707 63.5117C86.2539 63.5117 85.9102 63.6113 85.6758 63.8105C85.4414 64.0059 85.3242 64.2656 85.3242 64.5898C85.3242 64.8125 85.3711 65.0039 85.4648 65.1641C85.5586 65.3203 85.7129 65.4688 85.9277 65.6094C86.1426 65.75 86.5293 65.9355 87.0879 66.166C87.7168 66.4277 88.1777 66.6719 88.4707 66.8984C88.7637 67.125 88.9785 67.3809 89.1152 67.666C89.252 67.9512 89.3203 68.2871 89.3203 68.6738Z" fill="#616161"/>
</svg>
