<svg width="60" height="67" viewBox="0 0 60 67" fill="none" xmlns="http://www.w3.org/2000/svg">
<path d="M29.6101 15.4026C30.0069 14.5474 29.875 13.5681 29.2656 12.8466L20.1819 2.09084C19.8852 1.7395 19.4511 1.53809 18.9905 1.53809C18.5305 1.53809 18.0962 1.7395 17.7998 2.09084L8.71602 12.8466C8.10662 13.5684 7.97415 14.5477 8.37155 15.4029C8.77295 16.2669 9.61752 16.8042 10.5763 16.8042H12.3621L13.6384 27.0058C13.9717 29.6688 16.2725 31.6767 18.9905 31.6767C21.7085 31.6767 24.0096 29.6688 24.3426 27.0058L25.6192 16.8042H27.4048C28.3638 16.8042 29.2087 16.2669 29.6101 15.4026Z" fill="#FFBC6B"/>
<path d="M47.2898 34.5483C46.8882 33.6842 46.0436 33.1469 45.0846 33.1469H43.2993L42.0227 22.9454C41.6894 20.2823 39.3883 18.2745 36.6703 18.2745C33.9524 18.2745 31.6518 20.2823 31.3185 22.9454L30.0419 33.1469H28.2561C27.2974 33.1469 26.4528 33.6842 26.0511 34.5485C25.654 35.4037 25.7862 36.383 26.3958 37.1046L35.4801 47.8609C35.7768 48.2116 36.2106 48.4131 36.6703 48.4131C37.1307 48.4131 37.5644 48.2116 37.8611 47.8609L46.9454 37.1046C47.5548 36.3827 47.6867 35.4034 47.2898 34.5483Z" fill="#FFBC6B"/>
<path d="M4.08984 64H2.68945V56.6348H0.169922V55.4336H6.60938V56.6348H4.08984V64ZM9.32812 59.418H10.3008C10.9531 59.418 11.4258 59.2969 11.7188 59.0547C12.0117 58.8125 12.1582 58.4531 12.1582 57.9766C12.1582 57.4922 12 57.1445 11.6836 56.9336C11.3672 56.7227 10.8906 56.6172 10.2539 56.6172H9.32812V59.418ZM9.32812 60.5781V64H7.92773V55.4336H10.3477C11.4531 55.4336 12.2715 55.6406 12.8027 56.0547C13.334 56.4688 13.5996 57.0938 13.5996 57.9297C13.5996 58.9961 13.0449 59.7559 11.9355 60.209L14.3555 64H12.7617L10.7109 60.5781H9.32812ZM20.918 64L20.0625 61.6211H16.7871L15.9492 64H14.4727L17.6777 55.3984H19.2012L22.4062 64H20.918ZM19.6934 60.4141L18.8906 58.082C18.832 57.9258 18.75 57.6797 18.6445 57.3438C18.543 57.0078 18.4727 56.7617 18.4336 56.6055C18.3281 57.0859 18.1738 57.6113 17.9707 58.1816L17.1973 60.4141H19.6934ZM30.6738 64H28.957L24.7441 57.1738H24.6973L24.7266 57.5547C24.7812 58.2812 24.8086 58.9453 24.8086 59.5469V64H23.5371V55.4336H25.2363L29.4375 62.2246H29.4727C29.4648 62.1348 29.4492 61.8086 29.4258 61.2461C29.4023 60.6797 29.3906 60.2383 29.3906 59.9219V55.4336H30.6738V64ZM37.875 61.6738C37.875 62.4355 37.5996 63.0332 37.0488 63.4668C36.498 63.9004 35.7383 64.1172 34.7695 64.1172C33.8008 64.1172 33.0078 63.9668 32.3906 63.666V62.3418C32.7812 62.5254 33.1953 62.6699 33.6328 62.7754C34.0742 62.8809 34.4844 62.9336 34.8633 62.9336C35.418 62.9336 35.8262 62.8281 36.0879 62.6172C36.3535 62.4062 36.4863 62.123 36.4863 61.7676C36.4863 61.4473 36.3652 61.1758 36.123 60.9531C35.8809 60.7305 35.3809 60.4668 34.623 60.1621C33.8418 59.8457 33.291 59.4844 32.9707 59.0781C32.6504 58.6719 32.4902 58.1836 32.4902 57.6133C32.4902 56.8984 32.7441 56.3359 33.252 55.9258C33.7598 55.5156 34.4414 55.3105 35.2969 55.3105C36.1172 55.3105 36.9336 55.4902 37.7461 55.8496L37.3008 56.9922C36.5391 56.6719 35.8594 56.5117 35.2617 56.5117C34.8086 56.5117 34.4648 56.6113 34.2305 56.8105C33.9961 57.0059 33.8789 57.2656 33.8789 57.5898C33.8789 57.8125 33.9258 58.0039 34.0195 58.1641C34.1133 58.3203 34.2676 58.4688 34.4824 58.6094C34.6973 58.75 35.084 58.9355 35.6426 59.166C36.2715 59.4277 36.7324 59.6719 37.0254 59.8984C37.3184 60.125 37.5332 60.3809 37.6699 60.666C37.8066 60.9512 37.875 61.2871 37.875 61.6738ZM40.9219 64H39.5332V55.4336H44.3672V56.6172H40.9219V59.2949H44.1504V60.4844H40.9219V64ZM50.7656 64H45.9199V55.4336H50.7656V56.6172H47.3203V58.9492H50.5488V60.1211H47.3203V62.8105H50.7656V64ZM54.0234 59.418H54.9961C55.6484 59.418 56.1211 59.2969 56.4141 59.0547C56.707 58.8125 56.8535 58.4531 56.8535 57.9766C56.8535 57.4922 56.6953 57.1445 56.3789 56.9336C56.0625 56.7227 55.5859 56.6172 54.9492 56.6172H54.0234V59.418ZM54.0234 60.5781V64H52.623V55.4336H55.043C56.1484 55.4336 56.9668 55.6406 57.498 56.0547C58.0293 56.4688 58.2949 57.0938 58.2949 57.9297C58.2949 58.9961 57.7402 59.7559 56.6309 60.209L59.0508 64H57.457L55.4062 60.5781H54.0234Z" fill="#616161"/>
</svg>
