<svg width="23" height="31" viewBox="0 0 23 31" fill="none" xmlns="http://www.w3.org/2000/svg">
<path d="M22.2898 16.5483C21.8882 15.6842 21.0436 15.1469 20.0846 15.1469H18.2993L17.0227 4.94538C16.6894 2.28234 14.3883 0.274475 11.6703 0.274475C8.95236 0.274475 6.65182 2.28234 6.31851 4.94538L5.04193 15.1469H3.25608C2.29735 15.1469 1.45278 15.6842 1.0511 16.5485C0.653986 17.4037 0.786165 18.383 1.39585 19.1046L10.4801 29.8609C10.7768 30.2116 11.2106 30.4131 11.6703 30.4131C12.1307 30.4131 12.5644 30.2116 12.8611 29.8609L21.9454 19.1046C22.5548 18.3827 22.6867 17.4034 22.2898 16.5483Z" fill="#FFBC6B"/>
</svg>
