<svg width="44" height="50" viewBox="0 0 44 50" fill="none" xmlns="http://www.w3.org/2000/svg">
<path d="M42.3125 8.33321C42.2293 8.33321 42.1458 8.37517 42.0626 8.39577C41.9585 8.37517 41.875 8.33321 41.7918 8.33321H39.7082V2.08321C39.7082 0.937653 38.7709 0 37.625 0H6.375C3.29158 0 0.729248 2.24991 0.229141 5.20821C0.16658 5.37491 0.125 5.54161 0.125 5.72929V44.2707C0.125 47.4377 2.68733 50 5.85429 50H42.3125C43.1666 50 43.875 49.2916 43.875 48.4375V9.89571C43.875 9.0416 43.1666 8.33321 42.3125 8.33321ZM22 42.7082C14.5415 42.7082 8.45821 36.6249 8.45821 29.1668C8.45821 21.7083 14.5415 15.625 22 15.625C29.4585 15.625 35.5418 21.7083 35.5418 29.1668C35.5418 36.6249 29.4585 42.7082 22 42.7082ZM35.5418 8.33321H6.375C5.22906 8.33321 4.29179 7.39594 4.29179 6.25C4.29179 5.10406 5.22906 4.16679 6.375 4.16679H35.5418V8.33321Z" fill="#FFBC6B"/>
</svg>
