<svg width="15" height="15" viewBox="0 0 15 15" fill="none" xmlns="http://www.w3.org/2000/svg">
<path d="M15 1.77577C14.4422 2.07692 13.8478 2.27654 13.2281 2.37346C13.8656 1.905 14.3522 1.16885 14.5809 0.281538C13.9866 0.717692 13.3303 1.02577 12.6309 1.19769C12.0666 0.458077 11.2622 0 10.3847 0C8.68219 0 7.31156 1.70077 7.31156 3.78577C7.31156 4.08577 7.33219 4.37423 7.38281 4.64885C4.82625 4.49538 2.56406 2.98731 1.04437 0.69C0.779062 1.25654 0.623438 1.905 0.623438 2.60308C0.623438 3.91385 1.17188 5.07577 1.98937 5.74846C1.49531 5.73692 1.01063 5.56038 0.6 5.28231C0.6 5.29385 0.6 5.30885 0.6 5.32385C0.6 7.16308 1.66594 8.69077 3.06375 9.04269C2.81344 9.12692 2.54063 9.16731 2.2575 9.16731C2.06063 9.16731 1.86187 9.15346 1.67531 9.10269C2.07375 10.6015 3.20438 11.7035 4.54875 11.7392C3.5025 12.7465 2.17406 13.3535 0.735938 13.3535C0.48375 13.3535 0.241875 13.3396 0 13.3015C1.36219 14.3827 2.97656 15 4.7175 15C10.3763 15 13.47 9.23077 13.47 4.23C13.47 4.06269 13.4653 3.90115 13.4587 3.74077C14.0691 3.20769 14.5819 2.54192 15 1.77577Z" fill="white"/>
</svg>
