<svg width="323" height="424" viewBox="0 0 323 424" fill="none" xmlns="http://www.w3.org/2000/svg">
<path d="M312.021 10.869C305.59 7.906 298.012 9.059 292.752 13.799L264.997 38.374C264.242 39.046 263.103 39.042 262.352 38.366L224.588 4.59C217.758 -1.53 207.418 -1.53 200.588 4.59L162.858 38.335C162.099 39.013 160.952 39.013 160.193 38.335L122.459 4.59C115.629 -1.529 105.289 -1.529 98.4589 4.59L60.6899 38.366C59.9339 39.042 58.7919 39.045 58.0319 38.373L30.2519 13.799C22.8819 7.245 11.5939 7.906 5.0399 15.276C2.1009 18.581 0.492896 22.859 0.526896 27.281V395.775C0.460896 405.653 8.41489 413.714 18.2929 413.78C22.7179 413.81 26.9959 412.198 30.3019 409.257L58.0569 384.682C58.8119 384.01 59.9509 384.014 60.7019 384.69L98.4659 418.466C105.296 424.586 115.636 424.586 122.466 418.466L160.2 384.721C160.959 384.043 162.106 384.043 162.865 384.721L200.599 418.465C207.43 424.582 217.769 424.582 224.599 418.465L262.37 384.689C263.126 384.013 264.268 384.01 265.028 384.682L292.808 409.256C300.181 415.807 311.468 415.141 318.019 407.768C320.953 404.466 322.559 400.193 322.527 395.775V27.281C322.621 20.202 318.489 13.747 312.021 10.869ZM66.7339 143.528H166.32C170.738 143.528 174.32 147.11 174.32 151.528C174.32 155.946 170.738 159.528 166.32 159.528H66.7339C62.3159 159.528 58.7339 155.946 58.7339 151.528C58.7339 147.11 62.3159 143.528 66.7339 143.528ZM256.32 279.528H66.7339C62.3159 279.528 58.7339 275.946 58.7339 271.528C58.7339 267.11 62.3159 263.528 66.7339 263.528H256.32C260.738 263.528 264.32 267.11 264.32 271.528C264.32 275.946 260.738 279.528 256.32 279.528ZM256.32 219.528H66.7339C62.3159 219.528 58.7339 215.946 58.7339 211.528C58.7339 207.11 62.3159 203.528 66.7339 203.528H256.32C260.738 203.528 264.32 207.11 264.32 211.528C264.32 215.946 260.738 219.528 256.32 219.528Z" fill="#07A4D9"/>
</svg>
