<svg width="512" height="512" viewBox="0 0 512 512" fill="none" xmlns="http://www.w3.org/2000/svg">
<g clip-path="url(#clip0)">
<path d="M335.009 292.623C335.009 315.623 353.719 334.333 376.718 334.333H511.999V250.913H376.719C353.72 250.914 335.009 269.625 335.009 292.623V292.623ZM399.528 293.848C399.528 303.135 392 310.663 382.714 310.663C373.427 310.663 365.899 303.135 365.899 293.848C365.899 284.562 373.427 277.034 382.714 277.034C392 277.035 399.528 284.563 399.528 293.848Z" fill="#07A4D9"/>
<path d="M376.719 366.633C335.91 366.633 302.71 333.432 302.71 292.623C302.71 251.814 335.911 218.613 376.719 218.613H512V162.252C512 124.127 480.983 93.1095 442.858 93.1095H69.142C31.017 93.1095 -1.52588e-05 124.127 -1.52588e-05 162.252V420.987C-1.52588e-05 459.112 31.017 490.129 69.142 490.129H442.859C480.984 490.129 512.001 459.112 512.001 420.987V366.633H376.719Z" fill="#07A4D9"/>
<path d="M69.142 60.8106C475.369 60.8106 446.256 60.4755 455.174 61.5596C444.093 38.126 420.232 21.8711 392.638 21.8711H69.142C32.0183 21.8711 1.64728 51.2832 0.0766983 88.0263C18.199 71.1516 42.4835 60.8106 69.142 60.8106V60.8106Z" fill="#07A4D9"/>
</g>
<defs>
<clipPath id="clip0">
<rect width="512" height="512" fill="white"/>
</clipPath>
</defs>
</svg>
