<svg width="50" height="45" viewBox="0 0 50 45" fill="none" xmlns="http://www.w3.org/2000/svg">
<path d="M48.4375 0.000946045H1.5625C0.7 0.000946045 0 0.630946 0 1.40719V21.0947C0 21.8709 0.7 22.5009 1.5625 22.5009H7.30625C8.55 20.5406 9.38438 18.645 9.89688 16.8759H9.375C7.65 16.8759 6.25 15.6159 6.25 14.0634V8.43844C6.25 6.88594 7.65 5.62594 9.375 5.62594H40.625C42.35 5.62594 43.75 6.88594 43.75 8.43844V14.0634C43.75 15.3572 42.7594 16.3978 41.4406 16.7269C41.075 18.5522 40.4719 20.49 39.5813 22.5009H48.4375C49.3 22.5009 50 21.8709 50 21.0947V1.40719C50 0.630946 49.3 0.000946045 48.4375 0.000946045Z" fill="#07A4D9"/>
<path d="M38.6094 8.43893H13.5844C14.1375 12.0952 14.0031 18.0858 9.60627 24.5799C1.5969 36.4036 6.2594 43.9749 6.4594 44.2927C6.73752 44.7286 7.25627 44.9986 7.81565 44.9986H29.6906C30.2438 44.9986 30.7531 44.7286 31.0344 44.3011C31.3156 43.8736 31.3219 43.3364 31.0531 42.9005C30.8906 42.6389 27.1719 36.353 34.15 26.0452C38.9031 19.028 39.1813 12.5958 38.6094 8.43893ZM18.75 12.6577C18.75 11.8814 19.45 11.2514 20.3125 11.2514C21.175 11.2514 21.875 11.8814 21.875 12.6577V15.4702C21.875 16.2464 21.175 16.8764 20.3125 16.8764C19.45 16.8764 18.75 16.2464 18.75 15.4702V12.6577ZM25 37.9702C25 38.7464 24.3 39.3764 23.4375 39.3764C22.575 39.3764 21.875 38.7464 21.875 37.9702V35.1577C21.875 34.3814 22.575 33.7514 23.4375 33.7514C24.3 33.7514 25 34.3814 25 35.1577V37.9702ZM21.875 30.2358C19.2906 30.2358 17.1875 28.028 17.1875 25.3139C17.1875 22.5999 19.2906 20.3921 21.875 20.3921C24.4594 20.3921 26.5625 22.5999 26.5625 25.3139C26.5625 28.028 24.4594 30.2358 21.875 30.2358Z" fill="#07A4D9"/>
</svg>
