<svg width="67" height="65" viewBox="0 0 67 65" fill="none" xmlns="http://www.w3.org/2000/svg">
<path d="M60.4375 0.000946045H13.5625C12.7 0.000946045 12 0.630946 12 1.40719V21.0947C12 21.8709 12.7 22.5009 13.5625 22.5009H19.3063C20.55 20.5406 21.3844 18.645 21.8969 16.8759H21.375C19.65 16.8759 18.25 15.6159 18.25 14.0634V8.43844C18.25 6.88594 19.65 5.62594 21.375 5.62594H52.625C54.35 5.62594 55.75 6.88594 55.75 8.43844V14.0634C55.75 15.3572 54.7594 16.3978 53.4406 16.7269C53.075 18.5522 52.4719 20.49 51.5813 22.5009H60.4375C61.3 22.5009 62 21.8709 62 21.0947V1.40719C62 0.630946 61.3 0.000946045 60.4375 0.000946045Z" fill="#07A4D9"/>
<path d="M50.6094 8.43893H25.5844C26.1375 12.0952 26.0031 18.0858 21.6063 24.5799C13.5969 36.4036 18.2594 43.9749 18.4594 44.2927C18.7375 44.7286 19.2563 44.9986 19.8156 44.9986H41.6906C42.2438 44.9986 42.7531 44.7286 43.0344 44.3011C43.3156 43.8736 43.3219 43.3364 43.0531 42.9005C42.8906 42.6389 39.1719 36.353 46.15 26.0452C50.9031 19.028 51.1813 12.5958 50.6094 8.43893ZM30.75 12.6577C30.75 11.8814 31.45 11.2514 32.3125 11.2514C33.175 11.2514 33.875 11.8814 33.875 12.6577V15.4702C33.875 16.2464 33.175 16.8764 32.3125 16.8764C31.45 16.8764 30.75 16.2464 30.75 15.4702V12.6577ZM37 37.9702C37 38.7464 36.3 39.3764 35.4375 39.3764C34.575 39.3764 33.875 38.7464 33.875 37.9702V35.1577C33.875 34.3814 34.575 33.7514 35.4375 33.7514C36.3 33.7514 37 34.3814 37 35.1577V37.9702ZM33.875 30.2358C31.2906 30.2358 29.1875 28.028 29.1875 25.3139C29.1875 22.5999 31.2906 20.3921 33.875 20.3921C36.4594 20.3921 38.5625 22.5999 38.5625 25.3139C38.5625 28.028 36.4594 30.2358 33.875 30.2358Z" fill="#07A4D9"/>
<path d="M9.03516 62H7.51172L6.05859 56.8906C5.99609 56.668 5.91797 56.3477 5.82422 55.9297C5.73047 55.5078 5.67383 55.2148 5.6543 55.0508C5.61523 55.3008 5.55078 55.625 5.46094 56.0234C5.375 56.4219 5.30273 56.7188 5.24414 56.9141L3.82617 62H2.30273L1.19531 57.7109L0.0703125 53.4336H1.5L2.72461 58.4258C2.91602 59.2266 3.05273 59.9336 3.13477 60.5469C3.17773 60.2148 3.24219 59.8438 3.32812 59.4336C3.41406 59.0234 3.49219 58.6914 3.5625 58.4375L4.95703 53.4336H6.3457L7.77539 58.4609C7.91211 58.9258 8.05664 59.6211 8.20898 60.5469C8.26758 59.9883 8.4082 59.2773 8.63086 58.4141L9.84961 53.4336H11.2676L9.03516 62ZM12.4863 62V53.4336H13.8867V62H12.4863ZM19.1133 62H17.7129V54.6348H15.1934V53.4336H21.6328V54.6348H19.1133V62ZM29.707 62H28.3008V58.1387H24.3516V62H22.9512V53.4336H24.3516V56.9375H28.3008V53.4336H29.707V62ZM38.9297 57.6348C38.9297 59.0488 38.5371 60.1309 37.752 60.8809C36.9668 61.627 35.8359 62 34.3594 62H31.9629V53.4336H34.6113C35.9746 53.4336 37.0352 53.8008 37.793 54.5352C38.5508 55.2695 38.9297 56.3027 38.9297 57.6348ZM37.4531 57.6816C37.4531 55.6309 36.4941 54.6055 34.5762 54.6055H33.3633V60.8223H34.3594C36.4219 60.8223 37.4531 59.7754 37.4531 57.6816ZM42.1758 57.418H43.1484C43.8008 57.418 44.2734 57.2969 44.5664 57.0547C44.8594 56.8125 45.0059 56.4531 45.0059 55.9766C45.0059 55.4922 44.8477 55.1445 44.5312 54.9336C44.2148 54.7227 43.7383 54.6172 43.1016 54.6172H42.1758V57.418ZM42.1758 58.5781V62H40.7754V53.4336H43.1953C44.3008 53.4336 45.1191 53.6406 45.6504 54.0547C46.1816 54.4688 46.4473 55.0938 46.4473 55.9297C46.4473 56.9961 45.8926 57.7559 44.7832 58.209L47.2031 62H45.6094L43.5586 58.5781H42.1758ZM53.7656 62L52.9102 59.6211H49.6348L48.7969 62H47.3203L50.5254 53.3984H52.0488L55.2539 62H53.7656ZM52.541 58.4141L51.7383 56.082C51.6797 55.9258 51.5977 55.6797 51.4922 55.3438C51.3906 55.0078 51.3203 54.7617 51.2812 54.6055C51.1758 55.0859 51.0215 55.6113 50.8184 56.1816L50.0449 58.4141H52.541ZM64.2891 62H62.7656L61.3125 56.8906C61.25 56.668 61.1719 56.3477 61.0781 55.9297C60.9844 55.5078 60.9277 55.2148 60.9082 55.0508C60.8691 55.3008 60.8047 55.625 60.7148 56.0234C60.6289 56.4219 60.5566 56.7188 60.498 56.9141L59.0801 62H57.5566L56.4492 57.7109L55.3242 53.4336H56.7539L57.9785 58.4258C58.1699 59.2266 58.3066 59.9336 58.3887 60.5469C58.4316 60.2148 58.4961 59.8438 58.582 59.4336C58.668 59.0234 58.7461 58.6914 58.8164 58.4375L60.2109 53.4336H61.5996L63.0293 58.4609C63.166 58.9258 63.3105 59.6211 63.4629 60.5469C63.5215 59.9883 63.6621 59.2773 63.8848 58.4141L65.1035 53.4336H66.5215L64.2891 62Z" fill="#616161"/>
</svg>
